<svg xmlns="http://www.w3.org/2000/svg" width="13.297" height="13.297" viewBox="0 0 13.297 13.297"><defs><style>.a{fill:#425656;}</style></defs><g transform="translate(0 -0.001)"><g transform="translate(9.574 11.923)"><path class="a" d="M369.124,459.165a.26.26,0,0,0-.355-.094l-.01.006a.26.26,0,1,0,.261.449l.01-.006A.26.26,0,0,0,369.124,459.165Z" transform="translate(-368.63 -459.036)"/></g><g transform="translate(0 0.001)"><g transform="translate(0 0)"><path class="a" d="M12.407,3.327A6.647,6.647,0,0,0,.23,4.93a6.648,6.648,0,0,0,8.8,7.929.26.26,0,1,0-.186-.485,6.088,6.088,0,0,1-5.859-.805l.233-1.215.112-.036A.809.809,0,0,0,3.847,9.3l-.082-.253a.287.287,0,0,1,0-.179.808.808,0,0,0-.613-1.045l-.586-.115-1.131-.86a.26.26,0,0,0-.237-.04l-.662.215a6.123,6.123,0,0,1,0-.709l.054.052a.272.272,0,0,0,.254.13,3.772,3.772,0,0,0,.465-.053c.219-.032.437-.069.439-.069a.26.26,0,0,0,.172-.4L1.6,5.5l.456-.326A.26.26,0,0,0,2.13,5.1l.707-1.234.285-.305a1.1,1.1,0,0,0,.212-1.163,1.194,1.194,0,0,0-.473-.557A6.12,6.12,0,0,1,6.579.525l-.464.582-1.72.6a.26.26,0,0,0-.154.146L3.761,3.02a.26.26,0,0,0,.029.25l.7.983a2.468,2.468,0,0,0-.315.391c-.051.073-.1.141-.133.18l-.087.1a2.43,2.43,0,0,0-.418.58,1.548,1.548,0,0,0,.128,1.565,1.458,1.458,0,0,0,1.376.591A2.022,2.022,0,0,0,5.3,7.605c.223-.055.293-.061.365.006.035.033.038.039.037.149a1.01,1.01,0,0,0,.023.257.821.821,0,0,0,.22.359.582.582,0,0,1,.094.12A.647.647,0,0,1,6,9.034l-.02.062a1.458,1.458,0,0,0,.191,1.042c.047.1.091.2.12.287.234.693.409.852.549.915a.541.541,0,0,0,.227.048,1.452,1.452,0,0,0,.945-.568.8.8,0,0,0,.161-.378.414.414,0,0,1,.033-.116.68.68,0,0,1,.085-.11.9.9,0,0,0,.212-.353.572.572,0,0,1,.176-.277l.057-.062A.833.833,0,0,0,8.9,8.557c-.079-.256.059-.42.4-.733a2.805,2.805,0,0,0,.412-.444.561.561,0,0,0,.11-.52c-.094-.218-.333-.255-.525-.284a.861.861,0,0,1-.227-.053,1.228,1.228,0,0,1-.354-.536c-.019-.042-.038-.084-.057-.124-.034-.072-.068-.159-.1-.252A2.179,2.179,0,0,0,8.172,4.9a1.659,1.659,0,0,0-.745-.331c-.092-.025-.178-.048-.235-.069a.259.259,0,0,0-.149-.009.674.674,0,0,0-.277.115.323.323,0,0,0-.092.124,2.97,2.97,0,0,1-.306-.186l-.005,0a.368.368,0,0,0-.023-.25c-.145-.307-.627-.283-.722-.275-.054,0-.122.007-.194.009-.113,0-.239.009-.363.022l.006-.018a.664.664,0,0,1,.624-.439h.148a.26.26,0,0,0,0-.519H5.689a1.185,1.185,0,0,0-1.005.561L4.3,3.085l.381-.924,1.68-.589a.26.26,0,0,0,.117-.083L7.222.552a6.125,6.125,0,0,1,4.735,3.035,6.061,6.061,0,0,1,.612,1.487l-.11.1a.694.694,0,0,0-.231.5s0,0,0,.006l-.179-.493a.648.648,0,0,0-.117-.2l-.32-.375a.651.651,0,0,0-.5-.228h-.392a.376.376,0,0,0-.313.585l.04.06a2.878,2.878,0,0,1-.857.509L9.057,4.511V4.281a.26.26,0,0,0-.08-.188l-.483-.461A.26.26,0,0,0,8.4,3.575l-.435-.153a.26.26,0,0,0-.172.49l.382.134.363.346v.182a.26.26,0,0,0,.03.12l.672,1.287a.26.26,0,0,0,.32.123l.2-.072a3.4,3.4,0,0,0,1.219-.78.26.26,0,0,0,.032-.328l-.014-.021h.124a.132.132,0,0,1,.1.046l.32.375a.132.132,0,0,1,.024.041l.353.971a.26.26,0,0,0,.428.095l.168-.168a.811.811,0,0,0,.215-.39,6.15,6.15,0,0,1-2.283,5.593.26.26,0,0,0,.321.409,6.648,6.648,0,0,0,1.646-8.548ZM1.228,7.344,2.3,8.159a.259.259,0,0,0,.107.048l.645.126a.289.289,0,0,1,.219.373.8.8,0,0,0,0,.5l.082.253a.289.289,0,0,1-.185.364l-.258.084a.26.26,0,0,0-.175.2L2.527,11.19A6.2,6.2,0,0,1,1.344,9.715,6.1,6.1,0,0,1,.589,7.552ZM2.742,3.2l-.306.327a.261.261,0,0,0-.036.048L1.707,4.789l-.617.441a.26.26,0,0,0-.064.358l.231.338c-.133.02-.252.036-.332.045L.878,5.925C.817,5.868.731,5.792.6,5.68A6.138,6.138,0,0,1,2.432,2.206a.675.675,0,0,1,.421.385A.576.576,0,0,1,2.742,3.2ZM4.859,4.621A1.665,1.665,0,0,1,5.44,4.54c.079,0,.153-.005.219-.011a.706.706,0,0,1,.111,0,.26.26,0,0,0,.119.323c.049.026.117.071.188.119a1.5,1.5,0,0,0,.649.3.431.431,0,0,0,.353-.147l.011-.011a.278.278,0,0,0,.069-.085l.13.036a1.729,1.729,0,0,1,.5.186,1.843,1.843,0,0,1,.277.546c.039.1.076.2.117.285.018.038.035.077.053.117a1.622,1.622,0,0,0,.544.759,1.074,1.074,0,0,0,.432.132l.057.009a2.511,2.511,0,0,1-.33.346c-.322.3-.722.672-.537,1.267.087.281.091.311-.049.463L8.3,9.232a1.067,1.067,0,0,0-.293.475.405.405,0,0,1-.106.165,1.16,1.16,0,0,0-.145.192.842.842,0,0,0-.094.276.318.318,0,0,1-.054.152,1.514,1.514,0,0,1-.328.29.428.428,0,0,1-.218.087,1.853,1.853,0,0,1-.28-.61c-.037-.111-.089-.225-.139-.336a1.113,1.113,0,0,1-.169-.668L6.5,9.2a1.134,1.134,0,0,0,.017-.9.937.937,0,0,0-.189-.269.483.483,0,0,1-.1-.132.561.561,0,0,1-.009-.131.644.644,0,0,0-.2-.532A.837.837,0,0,0,5.173,7.1a1.629,1.629,0,0,1-.19.039.933.933,0,0,1-.894-.378,1.028,1.028,0,0,1-.081-1.039,1.972,1.972,0,0,1,.336-.457l.091-.1c.051-.058.106-.137.165-.221A1.877,1.877,0,0,1,4.859,4.621Z" transform="translate(0 -0.001)"/></g></g><g transform="translate(9.094 8.278)"><path class="a" d="M351.7,319.376l-.125-.471a.26.26,0,0,0-.479-.057c-.028.052-.054.108-.079.162a1.116,1.116,0,0,1-.13.236.574.574,0,0,1-.152.09.714.714,0,0,0-.433.42.761.761,0,0,0-.017.366.236.236,0,0,1-.007.153l0,.006a.874.874,0,0,0-.021.862.541.541,0,0,0,.441.275.42.42,0,0,0,.069-.006c.265-.043.464-.319.627-.867l.305-1.03A.26.26,0,0,0,351.7,319.376ZM350.9,320.4a1.576,1.576,0,0,1-.2.468l-.016-.021c-.05-.071.025-.245.074-.36l0-.006a.731.731,0,0,0,.043-.433.272.272,0,0,1,0-.135c.01-.032.071-.064.163-.108.041-.02.085-.041.131-.067Z" transform="translate(-350.15 -318.712)"/></g><g transform="translate(6.65 3.067)"><path class="a" d="M256.407,118.08l-.018-.006a.26.26,0,0,0-.172.49l.018.006a.26.26,0,0,0,.172-.49Z" transform="translate(-256.044 -118.059)"/></g></g></svg>